PathFileType	4	(X/Y/Z)	C:/Users/opensim2020/Desktop/walking_exp_matlab/subject03_walking06_straight_03.trc	
DataRate	CameraRate	NumFrames	NumMarkers	Units	OrigDataRate	OrigDataStartFrame	OrigNumFrames	
100.00	100.00	5	44	mm	100.00	2030	280	
Frame#	Time	LFHD			RFHD			LBHD			RBHD			C7			T10			CLAV			STRN			RBAK			LSHO			LUPA			LELB			LFRM			LWRA			LWRB			LFIN			RSHO			RUPA			RELB			RFRM			RWRA			RWRB			RFIN			LASI			RASI			LPSI			RPSI			LTHI			LKNE			LTIB			LANK			LHEE			LTOE			RTHI			RKNE			RTIB			RANK			RHEE			RTOE			*39			*40			*41			*42			*43			
		X1	Y1	Z1	X2	Y2	Z2	X3	Y3	Z3	X4	Y4	Z4	X5	Y5	Z5	X6	Y6	Z6	X7	Y7	Z7	X8	Y8	Z8	X9	Y9	Z9	X10	Y10	Z10	X11	Y11	Z11	X12	Y12	Z12	X13	Y13	Z13	X14	Y14	Z14	X15	Y15	Z15	X16	Y16	Z16	X17	Y17	Z17	X18	Y18	Z18	X19	Y19	Z19	X20	Y20	Z20	X21	Y21	Z21	X22	Y22	Z22	X23	Y23	Z23	X24	Y24	Z24	X25	Y25	Z25	X26	Y26	Z26	X27	Y27	Z27	X28	Y28	Z28	X29	Y29	Z29	X30	Y30	Z30	X31	Y31	Z31	X32	Y32	Z32	X33	Y33	Z33	X34	Y34	Z34	X35	Y35	Z35	X36	Y36	Z36	X37	Y37	Z37	X38	Y38	Z38	X39	Y39	Z39	X40	Y40	Z40	X41	Y41	Z41	X42	Y42	Z42	X43	Y43	Z43	X44	Y44	Z44	

36	0.350	1357.41663	-880.85315	1629.85376	1490.58081	-883.30695	1630.54797	1358.89050	-1005.16730	1572.90857	1490.06995	-1002.37939	1574.01941	1406.99255	-1027.68701	1427.21558	1410.52905	-1082.11206	1117.53613	1415.34180	-910.32135	1342.47278	1409.73047	-878.15259	1175.37805	1500.65369	-1096.16882	1257.48511	1259.61047	-939.54272	1382.96387	1178.54150	-916.49786	1195.51648	1160.64685	-880.96594	1078.91443	1157.97168	-828.02759	959.77203	1182.40894	-791.59460	844.44366	1128.55457	-803.61005	852.38824	1131.64612	-769.30072	775.98553	1572.02197	-962.58966	1370.37024	1646.64990	-978.93268	1150.06885	1660.76074	-968.39063	1037.80835	1660.50195	-949.70508	902.10095	1623.99121	-915.46143	809.27283	1666.13770	-948.99304	801.68134	1655.76953	-921.69696	732.54968	1290.56128	-927.35968	946.75763	1528.60498	-920.36407	944.87378	1347.55957	-1086.02661	976.71185	1495.88147	-1080.39771	977.92163	1257.17078	-996.09528	647.83966	1298.26599	-994.25305	471.00479	1296.34253	-1048.36035	282.48917	1337.68823	-1063.96753	71.37048	1374.83142	-1104.06262	36.24058	1357.67163	-911.00439	35.46400	1576.97485	-911.21368	654.77930	1551.39026	-841.90723	488.64468	1558.40430	-947.96417	330.19812	1521.76575	-1069.40198	150.81241	1471.94714	-1126.12756	141.26665	1500.43750	-966.79913	54.92771	1410.13721	-970.70630	1681.98120												 
37	0.360	1357.56592	-872.53217	1629.45874	1491.04333	-875.54425	1629.96960	1358.79871	-997.02533	1572.84534	1489.92053	-994.33099	1573.74316	1406.71863	-1020.00812	1426.73279	1409.55554	-1074.28210	1117.13281	1415.04504	-902.71631	1342.09888	1409.26990	-870.33813	1175.12476	1499.73218	-1088.72717	1256.77759	1259.42639	-931.78302	1383.21436	1177.75281	-907.49469	1196.32471	1159.62866	-870.44867	1080.18262	1157.30334	-814.99432	962.18225	1182.46472	-775.57904	847.96161	1128.77209	-788.31201	855.11505	1132.22742	-751.96710	779.82025	1571.70105	-955.33588	1369.55615	1646.06165	-973.10388	1149.31335	1659.99011	-962.64758	1036.94629	1659.69702	-943.50818	901.22809	1623.20007	-909.34546	808.39130	1665.11475	-943.04108	800.68494	1654.75415	-915.86542	731.69995	1289.82568	-919.64117	946.25946	1527.97253	-912.48706	944.83893	1347.01453	-1078.31897	976.30762	1495.21936	-1072.65161	977.49298	1256.83179	-990.18469	647.46600	1298.05188	-989.71161	470.66342	1296.20251	-1045.86438	282.52484	1337.80908	-1063.72339	71.48387	1374.53259	-1103.62891	36.27746	1357.64380	-910.91833	35.40079	1576.75256	-900.45184	655.60608	1550.21851	-829.44141	490.26517	1556.93555	-929.24072	327.19830	1519.36035	-1042.60168	142.63861	1469.25659	-1098.50391	130.19972	1498.44165	-935.07727	52.60524	1410.30444	-962.41528	1681.68042												 
38	0.370	1357.71130	-864.31549	1628.95483	1491.24426	-867.35046	1629.27075	1358.80884	-988.85016	1572.60486	1490.01843	-986.38361	1573.32104	1406.61646	-1012.28406	1426.35669	1408.65186	-1066.39600	1116.56470	1414.78992	-895.06696	1341.65002	1408.83569	-862.59857	1174.68652	1498.83997	-1081.16052	1255.98267	1259.28711	-923.87744	1383.17200	1177.15552	-898.16626	1196.96985	1158.47595	-860.54694	1081.08459	1156.87756	-802.09741	964.57751	1182.78882	-759.71924	851.68756	1129.08020	-773.23798	857.74756	1133.08228	-735.00159	783.42206	1571.49121	-947.75897	1368.54077	1645.35327	-965.46692	1148.18091	1659.33447	-955.01337	1035.75183	1658.88318	-937.17120	900.06433	1622.27966	-903.09723	807.28473	1664.14490	-937.03351	799.55243	1653.60046	-909.99237	730.50281	1289.27502	-911.73639	945.61267	1527.39465	-904.50543	944.65466	1346.50183	-1070.54553	975.74219	1494.60327	-1064.83069	976.93597	1256.66345	-983.99731	647.09778	1297.78735	-985.20679	470.02493	1296.17078	-1043.39355	282.55487	1337.86023	-1063.60449	71.67813	1374.73169	-1103.55823	36.53766	1357.57947	-910.82831	35.35839	1576.88904	-889.64569	656.44299	1549.30164	-817.35382	491.65674	1555.64954	-910.65167	324.09818	1517.32056	-1015.36273	134.54301	1466.73035	-1070.22559	119.20128	1496.80591	-903.11694	50.42154	1410.51929	-954.07788	1681.28235												 
39	0.380	1358.01038	-855.96814	1628.34387	1491.54895	-859.17737	1628.41382	1358.82324	-980.60211	1572.26855	1490.08850	-978.28546	1572.69666	1406.44250	-1004.48633	1425.73022	1407.85559	-1058.42065	1115.86279	1414.55725	-887.30463	1341.02954	1408.39990	-854.75128	1174.05408	1497.96643	-1073.46436	1254.96826	1259.14722	-915.96777	1382.99792	1176.60132	-888.98969	1197.32959	1157.69861	-850.22723	1082.03613	1156.35168	-789.62903	966.56799	1183.10815	-744.21411	855.18695	1129.61707	-758.44489	860.18073	1134.26428	-718.25073	786.91840	1571.25708	-940.41260	1367.40979	1644.74976	-958.36737	1146.92334	1658.53699	-949.92902	1034.75562	1658.02197	-930.72919	898.84967	1621.40698	-896.75598	805.96521	1663.21899	-930.76727	798.29791	1652.51025	-903.85590	729.00262	1288.89331	-903.39203	944.97302	1526.76624	-896.44824	944.31927	1345.95972	-1062.60291	974.90454	1494.05322	-1056.96570	976.21704	1256.64319	-977.57849	646.52606	1297.66748	-980.78473	469.66595	1296.12109	-1040.90735	282.52014	1338.13416	-1063.14001	71.94624	1374.97803	-1103.45642	36.87796	1357.52307	-910.62054	35.28568	1576.85364	-879.31561	657.00696	1548.72717	-805.81897	492.70963	1554.69238	-892.26636	320.87961	1515.37732	-987.37567	126.36246	1464.32239	-1041.12366	108.26674	1495.57825	-870.84814	48.57346	1410.80225	-945.69696	1680.83936												 
40	0.390	1358.29846	-847.59967	1627.56335	1491.79785	-850.97015	1627.42859	1358.91797	-972.32788	1571.75415	1490.15027	-970.23718	1572.00183	1406.17627	-996.43347	1424.83032	1407.21460	-1050.44531	1115.09033	1414.32361	-879.47363	1340.18518	1408.08887	-846.82428	1173.30908	1497.18884	-1065.76208	1253.94238	1259.06067	-907.88055	1382.60657	1176.07678	-879.35345	1197.64941	1157.02991	-840.10321	1082.57471	1156.06006	-777.31921	968.45862	1183.58411	-728.97052	858.62146	1130.32434	-743.85889	862.46179	1135.65125	-701.83704	790.21210	1571.04480	-932.92963	1366.20337	1644.18616	-951.28870	1145.56384	1658.12927	-941.61469	1033.24792	1657.22473	-924.18262	897.44244	1620.49939	-890.38391	804.58521	1662.39478	-924.33221	796.91205	1651.47485	-897.68164	727.55322	1287.65735	-896.27588	944.05286	1526.15417	-888.54572	943.75055	1345.48694	-1054.66882	974.04138	1493.51978	-1049.04492	975.24121	1256.38464	-971.28412	645.95728	1297.36157	-976.65747	469.01172	1296.10779	-1038.55225	282.52594	1338.34900	-1062.76221	72.18610	1375.40869	-1103.70325	37.34293	1357.34937	-910.80017	35.09362	1577.10840	-869.18335	657.31696	1548.24707	-794.87946	493.39691	1553.92273	-874.08759	317.61508	1513.48401	-958.72845	118.34520	1462.18433	-1011.53864	97.73183	1494.62793	-838.38617	47.25816	1411.17188	-937.33411	1680.21973												 
